<?xml version='1.0' encoding='ASCII' standalone='yes'?>
<svg xmlns="http://www.w3.org/2000/svg" xmlns:rdkit="http://www.rdkit.org/xml" xmlns:xlink="http://www.w3.org/1999/xlink" version="1.1" baseProfile="full" xml:space="preserve" width="200px" height="200px" viewBox="0 0 200 200">
<!-- END OF HEADER -->
<rect style="opacity:1.0;fill:#FFFFFF;stroke:none" width="200" height="200" x="0" y="0"> </rect>
<path class="bond-0" d="M 77.2365,136.164 L 31.8061,136.164" style="fill:none;fill-rule:evenodd;stroke:#000000;stroke-width:2.0px;stroke-linecap:butt;stroke-linejoin:miter;stroke-opacity:1"/>
<path class="bond-0" d="M 70.4219,127.078 L 38.6207,127.078" style="fill:none;fill-rule:evenodd;stroke:#000000;stroke-width:2.0px;stroke-linecap:butt;stroke-linejoin:miter;stroke-opacity:1"/>
<path class="bond-8" d="M 77.2365,136.164 L 99.9517,96.8199" style="fill:none;fill-rule:evenodd;stroke:#000000;stroke-width:2.0px;stroke-linecap:butt;stroke-linejoin:miter;stroke-opacity:1"/>
<path class="bond-1" d="M 31.8061,136.164 L 9.09091,96.8199" style="fill:none;fill-rule:evenodd;stroke:#000000;stroke-width:2.0px;stroke-linecap:butt;stroke-linejoin:miter;stroke-opacity:1"/>
<path class="bond-2" d="M 9.09091,96.8199 L 31.8061,57.476" style="fill:none;fill-rule:evenodd;stroke:#000000;stroke-width:2.0px;stroke-linecap:butt;stroke-linejoin:miter;stroke-opacity:1"/>
<path class="bond-2" d="M 20.367,95.4613 L 36.2676,67.9206" style="fill:none;fill-rule:evenodd;stroke:#000000;stroke-width:2.0px;stroke-linecap:butt;stroke-linejoin:miter;stroke-opacity:1"/>
<path class="bond-3" d="M 31.8061,57.476 L 77.2365,57.476" style="fill:none;fill-rule:evenodd;stroke:#000000;stroke-width:2.0px;stroke-linecap:butt;stroke-linejoin:miter;stroke-opacity:1"/>
<path class="bond-4" d="M 77.2365,57.476 L 99.9517,96.8199" style="fill:none;fill-rule:evenodd;stroke:#000000;stroke-width:2.0px;stroke-linecap:butt;stroke-linejoin:miter;stroke-opacity:1"/>
<path class="bond-4" d="M 72.775,67.9206 L 88.6756,95.4613" style="fill:none;fill-rule:evenodd;stroke:#000000;stroke-width:2.0px;stroke-linecap:butt;stroke-linejoin:miter;stroke-opacity:1"/>
<path class="bond-5" d="M 99.9517,96.8199 L 145.382,96.8199" style="fill:none;fill-rule:evenodd;stroke:#000000;stroke-width:2.0px;stroke-linecap:butt;stroke-linejoin:miter;stroke-opacity:1"/>
<path class="bond-6" d="M 145.382,96.8199 L 154.555,112.707" style="fill:none;fill-rule:evenodd;stroke:#000000;stroke-width:2.0px;stroke-linecap:butt;stroke-linejoin:miter;stroke-opacity:1"/>
<path class="bond-6" d="M 154.555,112.707 L 163.727,128.595" style="fill:none;fill-rule:evenodd;stroke:#0000FF;stroke-width:2.0px;stroke-linecap:butt;stroke-linejoin:miter;stroke-opacity:1"/>
<path class="bond-7" d="M 149.316,99.0914 L 158.41,83.3401" style="fill:none;fill-rule:evenodd;stroke:#000000;stroke-width:2.0px;stroke-linecap:butt;stroke-linejoin:miter;stroke-opacity:1"/>
<path class="bond-7" d="M 158.41,83.3401 L 167.504,67.5888" style="fill:none;fill-rule:evenodd;stroke:#FF0000;stroke-width:2.0px;stroke-linecap:butt;stroke-linejoin:miter;stroke-opacity:1"/>
<path class="bond-7" d="M 141.448,94.5484 L 150.542,78.7971" style="fill:none;fill-rule:evenodd;stroke:#000000;stroke-width:2.0px;stroke-linecap:butt;stroke-linejoin:miter;stroke-opacity:1"/>
<path class="bond-7" d="M 150.542,78.7971 L 159.636,63.0458" style="fill:none;fill-rule:evenodd;stroke:#FF0000;stroke-width:2.0px;stroke-linecap:butt;stroke-linejoin:miter;stroke-opacity:1"/>
<path class="atom-7" d="M 165.253 129.731 L 169.469 136.545 Q 169.887 137.218, 170.56 138.435 Q 171.232 139.653, 171.268 139.725 L 171.268 129.731 L 172.976 129.731 L 172.976 142.597 L 171.214 142.597 L 166.689 135.146 Q 166.162 134.274, 165.599 133.274 Q 165.053 132.275, 164.89 131.966 L 164.89 142.597 L 163.218 142.597 L 163.218 129.731 L 165.253 129.731 " fill="#0000FF"/>
<path class="atom-7" d="M 174.521 129.731 L 176.266 129.731 L 176.266 135.201 L 182.844 135.201 L 182.844 129.731 L 184.588 129.731 L 184.588 142.597 L 182.844 142.597 L 182.844 136.654 L 176.266 136.654 L 176.266 142.597 L 174.521 142.597 L 174.521 129.731 " fill="#0000FF"/>
<path class="atom-7" d="M 185.212 142.145 Q 185.524 141.342, 186.268 140.898 Q 187.011 140.442, 188.043 140.442 Q 189.326 140.442, 190.046 141.138 Q 190.765 141.833, 190.765 143.069 Q 190.765 144.328, 189.83 145.503 Q 188.906 146.679, 186.987 148.07 L 190.909 148.07 L 190.909 149.03 L 185.188 149.03 L 185.188 148.226 Q 186.771 147.099, 187.707 146.259 Q 188.654 145.42, 189.11 144.664 Q 189.566 143.908, 189.566 143.129 Q 189.566 142.313, 189.158 141.857 Q 188.75 141.402, 188.043 141.402 Q 187.359 141.402, 186.903 141.678 Q 186.447 141.953, 186.124 142.565 L 185.212 142.145 " fill="#0000FF"/>
<path class="atom-8" d="M 162.191 57.5124 Q 162.191 54.4231, 163.718 52.6967 Q 165.244 50.9704, 168.097 50.9704 Q 170.95 50.9704, 172.477 52.6967 Q 174.003 54.4231, 174.003 57.5124 Q 174.003 60.638, 172.459 62.4188 Q 170.914 64.1815, 168.097 64.1815 Q 165.262 64.1815, 163.718 62.4188 Q 162.191 60.6561, 162.191 57.5124 M 168.097 62.7278 Q 170.06 62.7278, 171.114 61.4194 Q 172.186 60.0928, 172.186 57.5124 Q 172.186 54.9864, 171.114 53.7144 Q 170.06 52.4242, 168.097 52.4242 Q 166.135 52.4242, 165.062 53.6962 Q 164.008 54.9683, 164.008 57.5124 Q 164.008 60.111, 165.062 61.4194 Q 166.135 62.7278, 168.097 62.7278 " fill="#FF0000"/>
<text x="103" y="181" font-size="14" font-family="sans-serif" font-weight="normal" letter-spacing="0" text-anchor="middle" fill="black">Benzamide</text></svg>
